<svg width="852" height="1216" viewBox="0 0 852 1216" fill="none" xmlns="http://www.w3.org/2000/svg">
<path d="M274.667 67.3333V134.667H137.333H0V250.667V366.667H28H56V372.933C56 381.067 86.2667 1176.27 87.4667 1199.07L88.2667 1216H426.133H764V1210.8C764 1207.87 771.2 1017.07 780 786.933C788.8 556.667 796 367.867 796 367.467C796 367.067 808.667 366.667 824 366.667H852V250.667V134.667H714.667H577.333V67.3333V-6.34193e-05H426H274.667V67.3333ZM498.667 106.667V134.667H426H353.333V106.667V78.6666H426H498.667V106.667ZM773.067 250.267L773.333 286.667H426H78.6667V250V213.333L425.733 213.6L772.667 214L773.067 250.267ZM716 380.933C716.133 389.2 687.733 1134.13 687.333 1135.6C686.8 1136.93 633.467 1137.33 426.133 1137.33C278 1137.33 165.2 1136.8 164.8 1136.13C164.4 1135.47 157.733 969.467 150.133 767.2C142.4 564.8 135.867 394.4 135.467 388.267L134.8 377.333H425.333H716V380.933Z" fill="white"/>
<path d="M274.667 757.333V1041.33H314H353.333V757.333V473.333H314H274.667V757.333Z" fill="white"/>
<path d="M498.667 761.333V1048H538H577.333V761.333V474.667H538H498.667V761.333Z" fill="white"/>
</svg>
