<svg width="110" height="110" viewBox="0 0 110 110" fill="none" xmlns="http://www.w3.org/2000/svg">
<g id="Group 17">
<circle id="Ellipse 1" cx="55" cy="55" r="55" fill="#818CF8"/>
<g id="Group">
<path id="Vector" d="M54.3765 27.0471C53.9311 27.1089 53.3029 27.328 52.9203 27.5583C52.4406 27.8393 52.0122 28.2381 50.9729 29.373L50.0249 30.4124H44.3827C37.9924 30.4124 38.2494 30.3956 37.3128 30.845C36.8503 31.0641 36.6904 31.1821 36.2506 31.6147C35.8223 32.0361 35.6853 32.2159 35.4683 32.6428C35.3255 32.9238 35.1599 33.3564 35.1028 33.5979C35.0057 34.0193 35 34.9239 35 56.6496C35 78.5439 35.0057 79.2743 35.1085 79.6844C35.434 80.971 36.2849 82.0216 37.4556 82.5778C38.4264 83.0385 36.8331 82.9992 55.0275 82.9992C70.772 82.9992 71.2745 82.9935 71.6914 82.8924C73.0791 82.5497 74.2098 81.5834 74.7124 80.3193C75.0265 79.5271 75.0093 81.1171 74.9922 56.4249C74.9751 37.6038 74.9637 33.6598 74.8951 33.4743C74.7466 33.0305 74.4725 32.4574 74.2555 32.1484C73.9072 31.6372 73.2847 31.1147 72.6965 30.8338C71.7885 30.4012 72.0226 30.4124 65.6437 30.4124H59.9901L59.0536 29.3843C57.6487 27.8449 57.2547 27.5246 56.3981 27.2325C55.7299 27.0078 55.0732 26.9459 54.3765 27.0471ZM55.8784 28.946C56.3067 29.109 56.5523 29.3281 57.7629 30.6428L58.7852 31.7552V32.9687C58.7852 34.3171 58.8023 34.3901 59.1564 34.6542C59.3448 34.8003 59.4362 34.8115 62.1945 35.1093C63.7592 35.2722 65.0784 35.4126 65.1241 35.4126C65.204 35.4126 65.9236 36.7329 65.9236 36.8734C65.9236 36.9127 62.1659 36.9296 54.9875 36.9296H44.0515L44.4341 36.1711C44.674 35.7048 44.851 35.4126 44.9081 35.4126C44.9538 35.4126 46.2558 35.2722 47.8034 35.1093C50.9501 34.7722 50.9272 34.7778 51.1385 34.3227C51.2299 34.1204 51.247 33.9407 51.247 32.9125L51.2527 31.7327L52.3035 30.5922C53.5713 29.2157 53.7597 29.0528 54.3594 28.8562C54.6963 28.7494 55.4844 28.7944 55.8784 28.946ZM49.4196 32.6485V33.1429L46.8383 33.4125C45.4164 33.5586 44.1543 33.7047 44.0401 33.7328C43.6974 33.8171 43.509 34.0306 43.1264 34.7385L42.7723 35.407L40.8249 35.4239C38.6035 35.4407 38.5978 35.4464 38.3579 35.9183L38.2266 36.1655V56.5372V76.909L38.3579 77.1562C38.4321 77.3023 38.5635 77.454 38.6834 77.5214C38.8833 77.6337 38.929 77.6337 55.0161 77.6337C71.1375 77.6337 71.1489 77.6337 71.3488 77.5214C71.4573 77.454 71.5943 77.3191 71.6629 77.2124L71.7771 77.0157L71.7942 56.6552C71.7999 43.4074 71.7885 36.2273 71.7485 36.0925C71.6743 35.8228 71.3659 35.5306 71.0861 35.4632C70.9604 35.4407 70.0467 35.4126 69.0531 35.4126H67.2428L66.8944 34.7385C66.5232 34.0249 66.3405 33.8171 65.9921 33.7328C65.8779 33.7047 64.6158 33.5586 63.1996 33.4125L60.6126 33.1429V32.6485V32.1541H65.7123C68.8932 32.1541 70.9433 32.1765 71.1774 32.2102C71.7028 32.2945 72.1882 32.5417 72.5423 32.9125C72.9135 33.3002 73.102 33.6991 73.1762 34.2665C73.2162 34.5699 73.2333 41.8118 73.2219 56.9305L73.2048 79.1507L73.0734 79.5046C72.9078 79.9653 72.7193 80.2518 72.3881 80.5608C72.0512 80.8811 71.5429 81.1283 71.0632 81.2013C70.555 81.28 39.5514 81.28 39.0032 81.2013C38.2094 81.089 37.4556 80.5721 37.113 79.9091C36.7817 79.263 36.7989 80.808 36.7989 56.6777C36.7989 41.6882 36.8217 34.3676 36.856 34.1261C37.0159 33.1822 37.8554 32.3507 38.7862 32.2159C38.9632 32.1878 41.4303 32.1653 44.2685 32.1597L49.4196 32.1541V32.6485ZM41.7387 37.4408C41.693 37.57 41.653 37.7554 41.653 37.851C41.653 38.0982 41.8757 38.4465 42.1099 38.5813C42.3097 38.6993 42.3154 38.6993 54.702 38.7162C61.5206 38.7274 67.2542 38.7162 67.4483 38.6993C67.7339 38.6712 67.8367 38.6319 68.0308 38.469C68.3963 38.1543 68.4477 37.8566 68.225 37.2891C68.2022 37.2217 68.3449 37.2105 69.0873 37.2105H69.9782V56.5372V75.864H55.0161H40.054V56.5372V37.2105H40.9392H41.8186L41.7387 37.4408Z" fill="#F9F9F9"/>
<path id="Vector_2" d="M54.4907 30.6933C54.1652 30.8619 53.971 31.154 53.9425 31.508C53.931 31.6765 53.9368 31.8788 53.9539 31.9574C54.0053 32.1541 54.3765 32.5473 54.5992 32.6429C55.0104 32.8058 55.4901 32.6934 55.8099 32.3451C56.2839 31.8451 56.1582 31.0473 55.5586 30.7102C55.2616 30.5473 54.7877 30.5416 54.4907 30.6933Z" fill="#F9F9F9"/>
</g>
</g>
</svg>
