<svg width="1025" height="1117" viewBox="0 0 1025 1117" fill="none" xmlns="http://www.w3.org/2000/svg">
<path d="M154.867 0.999942C141.8 4.59994 141.133 6.99994 140.6 46.5999L140.067 79.6666H76.6C15.1333 79.6666 12.8667 79.7999 8.59999 82.3333C-0.33334 87.7999 0.333327 43.5333 0.333327 598.333C0.333327 1153.13 -0.33334 1108.87 8.59999 1114.33C13 1117 13.8 1117 512.467 1117H1011.93L1016.47 1113.93C1019.27 1112.07 1021.67 1109 1022.73 1105.8C1024.07 1101.8 1024.33 998.067 1024.07 595.933C1023.67 102.467 1023.67 90.8666 1021.13 87.2666C1015.93 79.5333 1016.73 79.6666 947.8 79.6666H884.6L884.067 46.5999C883.667 15.1333 883.533 13.3999 880.6 8.86661C877.267 3.39994 871.667 0.466608 864.733 0.733275C858.867 0.999942 854.333 3.79994 851 9.39994C848.6 13.2666 848.333 16.3333 848.333 46.5999V79.6666H777.667H707V47.2666C707 12.0666 706.467 8.86661 698.867 3.39994C691.933 -1.66673 679 0.999942 674.067 8.59994C671.933 11.7999 671.667 16.4666 671.267 45.9333L670.733 79.6666L600.6 79.3999L530.333 78.9999L529.667 44.7333L529 10.4666L525.133 6.46661C520.333 1.39994 513.933 -0.600058 508.067 1.13328C503 2.59994 501.933 3.26661 498.333 7.53328C495.8 10.3333 495.667 13.1333 495 44.8666L494.333 78.9999L424.067 79.3999L353.933 79.6666L353.4 46.7333C353 15.1333 352.867 13.3999 349.933 8.86661C342.867 -2.60006 325.933 -1.66673 319.667 10.3333C318.067 13.3999 317.667 20.5999 317.667 46.9999V79.6666H247H176.333V47.6666C176.333 13.7999 175.667 9.66661 169.933 4.59994C166.467 1.53328 159.4 -0.200058 154.867 0.999942ZM140.333 143.933C140.333 160.333 141 176.067 141.667 179C143.4 186.733 150.6 193 157.8 193C164.867 193 171.4 189 174.2 183.133C175.933 179.4 176.333 173.267 176.333 146.467V114.333H247H317.667V146.467C317.667 173.667 318.067 179.267 319.933 183.267C325.8 195.533 342.733 196.067 350.6 184.067C352.733 180.867 353 176.6 353.4 147.4L353.933 114.333H424.467H495V147.267C495 183.533 495.267 184.867 502.867 189.933C508.733 193.933 515.933 193.933 521.8 189.933C529.4 184.867 529.667 183.533 529.667 147.267V114.333H600.333H671V143.933C671 160.333 671.667 176.067 672.333 179C674.067 186.733 681.267 193 688.467 193C695.533 193 702.067 189 704.867 183.133C706.6 179.4 707 173.267 707 146.467V114.333H777.667H848.333V146.333C848.333 182.2 849 185.667 856.6 190.333C864.867 195.267 875.667 192.6 881.267 184.067C883.4 180.867 883.667 176.6 884.067 147.4L884.6 114.333H936.467H988.333V268.333V422.333H512.333H36.3333V268.333V114.333H88.3333H140.333V143.933ZM988.333 770.333V1082.33H512.333H36.3333V770.333V458.333H512.333H988.333V770.333Z" fill="black"/>
<path d="M432.867 556.867C423.933 562.333 424.333 558.2 424.333 636.733C424.333 716.733 423.933 713.8 434.067 718.467C439.4 720.733 443.8 721 511 721C555.4 721 584.2 720.467 587.267 719.667C589.933 718.867 593.933 716.2 596.2 713.533L600.333 708.867V638.2C600.333 560.2 600.6 562.2 591.933 557C587.8 554.467 584.733 554.333 512.333 554.333C440.467 554.333 436.867 554.467 432.867 556.867ZM565.4 637.267L565.667 685H512.333H459V637V589L512.067 589.267L565 589.667L565.4 637.267Z" fill="black"/>
<path d="M712.333 559.4L707 564.6V636.6V708.6L710.067 713.133C715.4 721.133 715.667 721.133 797 720.733C878.6 720.333 874.6 720.733 880.333 711.267C882.867 707.133 883 704.067 883 637.933C883 561.8 883 562.067 874.733 557C870.467 554.467 868.2 554.333 794.067 554.333H717.8L712.333 559.4ZM847 637V685H794.333H741.667V637V589H794.333H847V637Z" fill="black"/>
<path d="M150.067 819.667C141.533 824.867 141.667 823 141.667 899.933C141.667 966.733 141.8 969.8 144.333 973.933C150.067 983.4 145.8 983 229.667 983C299.133 983 305.4 982.867 309.267 980.6C317.8 975.933 317.667 977.8 317.667 898.867V827.4L312.467 822.2L307.267 817H230.867C157.267 817 154.2 817.133 150.067 819.667ZM283 899.667V947.667H229.667H176.333V900.6C176.333 874.6 176.733 853 177.267 852.6C177.667 852.067 201.667 851.667 230.6 851.667H283V899.667Z" fill="black"/>
<path d="M429.667 822.067L424.333 827.267V899.4V971.533L428.467 976.2C430.733 978.867 434.733 981.533 437.4 982.333C444.067 984.067 580.6 984.067 587.267 982.333C589.933 981.533 593.933 978.867 596.2 976.2L600.333 971.533V900.867C600.333 824.067 600.467 825.8 592.867 819.8C589.4 817 588.333 817 512.2 817H435.133L429.667 822.067ZM565.667 899.667V947.667H512.333H459V899.667V851.667H512.333H565.667V899.667Z" fill="black"/>
</svg>
