<svg width="934" height="1330" viewBox="0 0 934 1330" fill="none" xmlns="http://www.w3.org/2000/svg">
<path d="M452.4 1.8C442 3.26666 427.333 8.46666 418.4 13.9333C407.2 20.6 397.2 30.0667 372.933 57L350.8 81.6667H219.067C69.8667 81.6667 75.8667 81.2667 54 91.9333C43.2 97.1333 39.4667 99.9333 29.2 110.2C19.2 120.2 16 124.467 10.9333 134.6C7.6 141.267 3.73333 151.533 2.4 157.267C0.133333 167.267 0 188.733 0 704.333C0 1223.93 0.133333 1241.27 2.53333 1251C10.1333 1281.53 30 1306.47 57.3333 1319.67C80 1330.6 42.8 1329.67 467.6 1329.67C835.2 1329.67 846.933 1329.53 856.667 1327.13C889.067 1319 915.467 1296.07 927.2 1266.07C934.533 1247.27 934.133 1285 933.733 699C933.333 252.333 933.067 158.733 931.467 154.333C928 143.8 921.6 130.2 916.533 122.867C908.4 110.733 893.867 98.3333 880.133 91.6667C858.933 81.4 864.4 81.6667 715.467 81.6667H583.467L561.6 57.2667C528.8 20.7333 519.6 13.1333 499.6 6.2C484 0.866662 468.667 -0.600004 452.4 1.8ZM487.467 46.8667C497.467 50.7333 503.2 55.9333 531.467 87.1333L555.333 113.533V142.333C555.333 174.333 555.733 176.067 564 182.333C568.4 185.8 570.533 186.067 634.933 193.133C671.467 197 702.267 200.333 703.333 200.333C705.2 200.333 722 231.667 722 235C722 235.933 634.267 236.333 466.667 236.333H211.333L220.267 218.333C225.867 207.267 230 200.333 231.333 200.333C232.4 200.333 262.8 197 298.933 193.133C372.4 185.133 371.867 185.267 376.8 174.467C378.933 169.667 379.333 165.4 379.333 141L379.467 113L404 85.9333C433.6 53.2667 438 49.4 452 44.7333C459.867 42.2 478.267 43.2667 487.467 46.8667ZM336.667 134.733V146.467L276.4 152.867C243.2 156.333 213.733 159.8 211.067 160.467C203.067 162.467 198.667 167.533 189.733 184.333L181.467 200.2L136 200.6C84.1333 201 84 201.133 78.4 212.333L75.3333 218.2V701.667V1185.13L78.4 1191C80.1333 1194.47 83.2 1198.07 86 1199.67C90.6667 1202.33 91.7333 1202.33 467.333 1202.33C843.733 1202.33 844 1202.33 848.667 1199.67C851.2 1198.07 854.4 1194.87 856 1192.33L858.667 1187.67L859.067 704.467C859.2 390.067 858.933 219.667 858 216.467C856.267 210.067 849.067 203.133 842.533 201.533C839.6 201 818.267 200.333 795.067 200.333H752.8L744.667 184.333C736 167.4 731.733 162.467 723.6 160.467C720.933 159.8 691.467 156.333 658.4 152.867L598 146.467V134.733V123H717.067C791.333 123 839.2 123.533 844.667 124.333C856.933 126.333 868.267 132.2 876.533 141C885.2 150.2 889.6 159.667 891.333 173.133C892.267 180.333 892.667 352.2 892.4 711L892 1238.33L888.933 1246.73C885.067 1257.67 880.667 1264.47 872.933 1271.8C865.067 1279.4 853.2 1285.27 842 1287C830.133 1288.87 106.267 1288.87 93.4667 1287C74.9333 1284.33 57.3333 1272.07 49.3333 1256.33C41.6 1241 42 1277.67 42 705C42 349.267 42.5333 175.533 43.3333 169.8C47.0667 147.4 66.6667 127.667 88.4 124.467C92.5333 123.8 150.133 123.267 216.4 123.133L336.667 123V134.733ZM157.333 248.467C156.267 251.533 155.333 255.933 155.333 258.2C155.333 264.067 160.533 272.333 166 275.533C170.667 278.333 170.8 278.333 460 278.733C619.2 279 753.067 278.733 757.6 278.333C764.267 277.667 766.667 276.733 771.2 272.867C779.733 265.4 780.933 258.333 775.733 244.867C775.2 243.267 778.533 243 795.867 243H816.667V701.667V1160.33H467.333H118V701.667V243H138.667H159.2L157.333 248.467Z" fill="black"/>
<path d="M455.067 88.3333C447.467 92.3333 442.933 99.2667 442.267 107.667C442 111.667 442.133 116.467 442.533 118.333C443.733 123 452.4 132.333 457.6 134.6C467.2 138.467 478.4 135.8 485.867 127.533C496.933 115.667 494 96.7333 480 88.7333C473.067 84.8667 462 84.7333 455.067 88.3333Z" fill="black"/>
</svg>
