<svg width="954" height="1130" viewBox="0 0 954 1130" fill="none" xmlns="http://www.w3.org/2000/svg">
<path d="M88.3243 1068.9C89.8884 1069.28 93.3253 1069.45 96.0299 1069.04C101.461 1068.4 277.119 978.12 286.468 971.233C291.008 967.852 348.084 896.037 617.828 554.176C941.937 143.285 943.591 141.193 944.308 135.982C944.728 133.085 944.41 128.756 943.833 126.261C942.639 121.749 941.907 121.171 872.581 65.8907C794.279 3.68978 798.084 6.1862 787.111 9.75154L781.895 11.4076L452.925 427.804L123.956 844.201L99.0753 943.661C85.3745 998.427 74.0175 1044.85 73.6973 1046.98C72.8413 1053.44 75.0812 1058.77 80.4002 1063.66C83.2469 1066.07 86.7602 1068.51 88.3243 1068.9ZM129.381 989.183C131.841 979.402 134.146 971.538 134.52 971.494C134.895 971.45 140.754 976.079 147.576 981.638L159.987 991.954L147.014 998.696C139.852 1002.38 132.068 1006.43 129.661 1007.76C126.983 1009.21 125.215 1009.51 125.188 1008.47C125.078 1007.53 127.003 998.86 129.381 989.183ZM153.142 893.937C161.007 862.258 161.151 861.862 167.411 853.723L173.858 845.563L195.06 839.374C206.721 836.012 216.389 833.454 216.598 833.62C216.912 833.868 214.992 843.396 212.542 854.884C207.158 880.197 207.371 884.444 215.14 891.601C224.374 899.916 227.933 899.499 253.516 887.765L274.967 878.034L274.315 900.798L273.662 923.562L267.298 931.618C261.016 939.57 260.663 939.801 231.934 954.657C216.013 962.979 202.395 969.892 201.855 970.146C201.128 970.421 188.199 960.546 172.902 948.291L145.321 925.991L153.142 893.937ZM262.877 797.625C261.837 794.424 259.652 791.168 257.141 789.185C249.922 783.481 244.546 782.973 230.39 786.912L217.252 790.636L438.108 511.085L658.963 231.534L708.659 270.796L758.355 310.057L537.086 590.131C415.417 744.135 315.729 869.456 315.723 868.602C315.696 867.561 315.748 862.334 315.86 856.815C316.102 841.883 314.986 836.413 310.669 831.983C301.909 822.854 294.914 823.105 273.319 833.232L257.123 840.827L260.776 821.793C263.645 807.407 264.275 801.448 262.877 797.625ZM696.572 183.931L709.383 167.715L759.079 206.976L808.774 246.237L795.963 262.454L783.151 278.67L733.456 239.409L683.76 200.147L696.572 183.931ZM766.002 96.0483L796.998 56.8149L846.694 96.0763L896.389 135.338L865.394 174.571L834.398 213.804L784.702 174.543L735.007 135.282L766.002 96.0483Z" fill="white"/>
</svg>
